# xmcd
#
# Track frame offsets:
# 150
# 19181
# 34346
# 52295
# 65838
# 81685
# 98670
# 114833
# 131419
# 154460
# 168052
# 184296
# 199710
# 220183
# 241020
#
# Disc length: 3417 seconds
#
#
# Revision: 0
# Processed by: cddbd v1.5.2PL0 Copyright (c) Steve Scherf et al.
# Submitted via: FreeRIP 2.951 
#
DISCID=d50d570f
DTITLE=pagode pra namorar - pagode pra namorar
DYEAR=2008
DGENRE=Pop
TTITLE0=a
TTITLE1=b
TTITLE2=c
TTITLE3=d
TTITLE4=e
TTITLE5=f
TTITLE6=g
TTITLE7=h
TTITLE8=i
TTITLE9=j
TTITLE10=l
TTITLE11=m
TTITLE12=n
TTITLE13=o
TTITLE14=p
EXTD=
EXTT0=
EXTT1=
EXTT2=
EXTT3=
EXTT4=
EXTT5=
EXTT6=
EXTT7=
EXTT8=
EXTT9=
EXTT10=
EXTT11=
EXTT12=
EXTT13=
EXTT14=
PLAYORDER=
